<svg xmlns="http://www.w3.org/2000/svg" fill="none" viewBox="0 0 403 275" height="275" width="403">
<path fill="white" d="M230.759 117.02C231.21 116.588 231.63 116.123 232.015 115.63C232.99 114.271 233.585 112.676 233.739 111.01C233.894 109.345 233.602 107.668 232.894 106.152C232.78 105.907 232.646 105.671 232.494 105.447C232.203 104.893 231.776 104.423 231.252 104.082C230.728 103.741 230.125 103.539 229.501 103.497C228.877 103.455 228.253 103.574 227.688 103.842C227.123 104.11 226.636 104.518 226.274 105.028C226.699 105.155 227.078 105.405 227.361 105.746C227.644 106.088 227.82 106.506 227.865 106.948C227.928 107.292 227.92 107.645 227.841 107.985C227.763 108.326 227.616 108.647 227.409 108.929C227.295 109.11 227.141 109.264 226.959 109.378C226.777 109.492 226.571 109.563 226.358 109.587C226.144 109.61 225.928 109.585 225.726 109.513C225.524 109.441 225.34 109.324 225.19 109.171C224.955 108.977 224.746 108.753 224.44 108.453C223.866 110.271 223.806 112.212 224.268 114.062C224.094 113.673 223.941 113.275 223.812 112.869C222.958 109.693 223.389 106.308 225.012 103.447C225.36 102.706 225.889 102.064 226.55 101.58C227.212 101.097 227.984 100.788 228.797 100.682C230.007 100.491 231.247 100.704 232.325 101.287C233.403 101.87 234.259 102.792 234.762 103.91C235.534 105.949 235.718 108.164 235.291 110.302C235.052 112.396 234.165 114.362 232.754 115.927C232.513 116.235 232.211 116.491 231.868 116.679C231.525 116.867 231.148 116.983 230.759 117.02Z"></path>
<path fill="white" d="M247.197 107.743C247.789 108.022 248.261 108.504 248.526 109.102C248.791 109.7 248.832 110.373 248.642 110.999C248.58 111.325 248.428 111.626 248.202 111.869C247.976 112.111 247.685 112.284 247.365 112.368C246.653 112.536 246.205 112.106 245.826 111.577C245.715 111.441 245.597 111.312 245.472 111.189C244.885 113.193 244.866 115.321 245.42 117.334C245.241 116.952 245.083 116.561 244.947 116.162C244.058 113.121 244.315 109.86 245.669 106.996C246.008 106.039 246.614 105.198 247.416 104.574C248.217 103.95 249.18 103.568 250.191 103.472C251.252 103.307 252.338 103.491 253.285 103.996C254.233 104.501 254.99 105.3 255.444 106.274C256.097 107.811 256.373 109.482 256.248 111.148C256.198 113.642 255.354 116.056 253.838 118.038C253.379 118.794 252.648 119.347 251.795 119.583C252.893 118.447 253.685 117.052 254.098 115.527C254.649 113.577 254.589 111.505 253.926 109.59C253.605 108.63 253.038 107.772 252.28 107.101C251.914 106.787 251.486 106.553 251.023 106.415C250.561 106.277 250.075 106.236 249.597 106.297C249.118 106.357 248.657 106.517 248.244 106.766C247.831 107.016 247.474 107.348 247.197 107.743Z"></path>
<path fill="#003679" d="M236.991 107.733C237.203 110.807 236.299 113.855 234.445 116.317C234.026 116.996 233.457 117.572 232.782 117.999C232.108 118.427 231.345 118.696 230.551 118.785C228.847 118.912 227.138 118.609 225.581 117.902C224.579 117.37 223.783 116.52 223.318 115.486C222.371 113.654 221.913 111.609 221.988 109.548C222.007 107.299 222.454 105.075 223.305 102.993C223.679 102.104 224.154 101.261 224.721 100.481C225.409 99.6029 226.306 98.9117 227.331 98.4709C228.355 98.0301 229.474 97.8536 230.585 97.9578C231.695 98.062 232.762 98.4435 233.687 99.0673C234.612 99.691 235.365 100.537 235.877 101.528C236.52 102.811 236.896 104.211 236.983 105.644C237.046 106.335 236.983 107.034 236.983 107.737M230.754 117.022C231.144 116.985 231.521 116.869 231.864 116.681C232.207 116.493 232.509 116.238 232.75 115.93C234.162 114.364 235.05 112.397 235.289 110.302C235.716 108.164 235.532 105.949 234.759 103.91C234.256 102.791 233.398 101.869 232.318 101.286C231.238 100.703 229.996 100.492 228.784 100.686C227.972 100.792 227.199 101.101 226.538 101.585C225.876 102.068 225.347 102.71 224.999 103.452C223.376 106.312 222.946 109.697 223.799 112.873C223.929 113.279 224.081 113.677 224.256 114.066C223.794 112.217 223.854 110.275 224.428 108.458C224.735 108.753 224.943 108.981 225.177 109.176C225.328 109.328 225.511 109.445 225.714 109.517C225.916 109.589 226.132 109.614 226.345 109.591C226.559 109.568 226.764 109.496 226.946 109.382C227.128 109.268 227.282 109.115 227.396 108.933C227.603 108.651 227.751 108.33 227.829 107.99C227.908 107.649 227.916 107.296 227.853 106.952C227.807 106.511 227.632 106.092 227.349 105.751C227.065 105.409 226.687 105.159 226.262 105.032C226.624 104.523 227.111 104.114 227.676 103.846C228.241 103.578 228.865 103.46 229.489 103.502C230.113 103.544 230.715 103.745 231.239 104.086C231.763 104.427 232.191 104.897 232.482 105.451C232.633 105.675 232.767 105.911 232.882 106.157C233.59 107.672 233.881 109.349 233.727 111.015C233.572 112.68 232.977 114.275 232.002 115.634C231.617 116.127 231.198 116.592 230.746 117.025"></path>
<path fill="#003679" d="M257.88 110.306C257.813 112.714 257.216 115.078 256.132 117.23C255.546 118.321 254.781 119.306 253.871 120.146C253.343 120.633 252.715 120.997 252.03 121.212C251.345 121.428 250.621 121.489 249.91 121.392C249.143 121.318 248.386 121.145 247.626 121.013C246.994 120.909 246.392 120.667 245.864 120.306C245.335 119.944 244.893 119.471 244.567 118.919C243.714 117.529 243.206 115.955 243.085 114.328C242.81 110.871 243.601 107.414 245.352 104.421C245.895 103.293 246.764 102.354 247.846 101.724C248.928 101.095 250.175 100.805 251.423 100.891C252.816 100.886 254.168 101.365 255.246 102.248C256.323 103.13 257.06 104.361 257.33 105.727C257.524 106.395 257.664 107.077 257.748 107.767C257.845 108.604 257.849 109.46 257.893 110.308M247.215 107.735C247.492 107.341 247.848 107.009 248.261 106.76C248.673 106.511 249.133 106.352 249.611 106.291C250.089 106.23 250.575 106.27 251.036 106.408C251.498 106.545 251.926 106.778 252.292 107.09C253.05 107.761 253.617 108.62 253.938 109.58C254.6 111.495 254.66 113.567 254.11 115.517C253.697 117.042 252.904 118.437 251.807 119.572C252.66 119.337 253.391 118.784 253.85 118.027C255.366 116.046 256.21 113.632 256.26 111.137C256.384 109.472 256.109 107.801 255.456 106.263C255.002 105.29 254.244 104.491 253.297 103.986C252.35 103.48 251.264 103.297 250.203 103.462C249.192 103.557 248.229 103.94 247.427 104.564C246.626 105.188 246.02 106.028 245.681 106.986C244.327 109.85 244.07 113.111 244.958 116.151C245.095 116.55 245.253 116.942 245.432 117.324C244.878 115.31 244.896 113.183 245.484 111.179C245.609 111.302 245.727 111.431 245.838 111.566C246.217 112.096 246.663 112.527 247.376 112.358C247.697 112.274 247.987 112.101 248.214 111.858C248.44 111.616 248.592 111.314 248.654 110.989C248.844 110.363 248.803 109.69 248.538 109.092C248.272 108.494 247.801 108.012 247.209 107.733"></path>
<path fill="#003679" d="M253.756 128.734V127.863C254.122 127.796 254.499 127.855 254.828 128.028C255.156 128.202 255.417 128.482 255.567 128.822C255.737 129.243 255.764 129.708 255.645 130.145C255.526 130.583 255.267 130.97 254.907 131.247L254.399 130.528C254.33 130.514 254.258 130.514 254.189 130.528C253.067 131.052 251.914 131.515 250.84 132.126C249.842 132.711 248.889 133.368 247.988 134.094C246.691 135.261 245.188 136.177 243.556 136.795C241.208 137.624 238.683 137.823 236.234 137.371C233.784 136.919 231.497 135.831 229.6 134.217C228.465 133.288 227.45 132.21 226.399 131.182C225.654 130.447 224.75 129.895 223.757 129.567C222.624 129.189 221.537 128.674 220.438 128.2C220.188 128.097 219.96 127.946 219.766 127.757C219.593 127.598 219.479 127.386 219.441 127.154C219.403 126.923 219.444 126.685 219.557 126.479C219.637 126.279 219.783 126.112 219.97 126.005C220.158 125.898 220.376 125.858 220.589 125.891C220.893 125.933 221.188 126.021 221.464 126.153C226.217 128.322 231.275 129.75 236.461 130.386C239.373 130.795 242.317 130.927 245.254 130.78C248.178 130.582 251.047 129.89 253.739 128.732M229.935 131.381C233.446 135.919 242.333 136.596 245.775 132.806C240.453 133.155 235.109 132.674 229.935 131.381Z"></path>
<path fill="#003679" d="M220.708 123.81C220.875 123.792 221.043 123.806 221.205 123.852C221.387 123.956 221.661 124.14 221.655 124.27C221.639 124.394 221.599 124.513 221.537 124.621C221.474 124.728 221.391 124.823 221.293 124.898C221.055 125.024 220.797 125.106 220.531 125.143C219.935 125.222 219.374 125.466 218.909 125.846C218.445 126.227 218.095 126.729 217.901 127.298C217.838 127.398 217.751 127.481 217.648 127.538C217.545 127.596 217.429 127.626 217.311 127.626C217.223 127.616 217.139 127.586 217.065 127.538C216.991 127.49 216.929 127.426 216.884 127.35C216.839 127.274 216.812 127.189 216.805 127.101C216.799 127.013 216.813 126.925 216.846 126.843C217.076 125.979 217.58 125.213 218.282 124.66C218.983 124.13 219.831 123.832 220.708 123.805"></path>
<path fill="white" d="M304.349 220.112C303.916 219.764 304.002 208.208 302.785 207.253C301.569 206.298 292.186 221.414 292.186 221.414L304.349 220.112Z"></path>
<path fill="#003679" d="M85.9265 116.417C83.7303 113.731 81.8302 110.816 80.2591 107.723C75.9012 99.5632 72.382 90.9829 69.7555 82.1135C68.9094 79.4134 68.4202 76.6142 68.3004 73.7872C68.1523 71.8853 68.5954 69.9842 69.5691 68.3438C69.7075 68.0408 69.7386 67.6996 69.6571 67.3766C69.3639 66.0501 69.3298 64.6795 69.5566 63.3401C69.7263 62.3037 70.1367 61.3216 70.7549 60.4726C71.373 59.6236 72.1816 58.9314 73.1157 58.4515C73.462 58.3164 73.7612 58.0828 73.9762 57.7795C74.1913 57.4763 74.3128 57.1167 74.3258 56.7452C74.4995 55.0936 75.2191 53.5472 76.3708 52.3508C77.5225 51.1544 79.0404 50.3763 80.6841 50.1399C81.6542 49.9484 82.6529 49.9536 83.6209 50.1549C84.589 50.3563 85.5068 50.7499 86.3201 51.3123C86.564 51.4885 86.8456 51.6052 87.1426 51.6532C87.4396 51.7011 87.7437 51.6791 88.0306 51.5886C89.7524 51.1421 91.5764 51.315 93.1837 52.0769C94.791 52.8389 96.0795 54.1415 96.8238 55.757C99.706 61.3665 102.58 66.9802 105.447 72.598C105.726 73.1424 106.029 73.6762 106.41 74.3755C106.676 73.6804 106.829 73.1424 107.08 72.6462C107.736 71.1623 108.489 69.7236 109.335 68.3396C110.486 66.6434 112.178 65.3875 114.135 64.7768C116.092 64.1661 118.197 64.2368 120.109 64.9773C121.557 65.501 122.774 66.5199 123.544 67.8539C124.313 69.188 124.587 70.7512 124.315 72.2672C123.283 78.0938 122.406 83.9517 121.53 89.8054C120.817 94.5872 120.211 99.3837 119.529 104.17C119.366 105.313 119.089 106.441 118.844 107.679C119.022 107.787 119.263 107.955 119.529 108.097C122.561 109.638 125.217 111.825 127.312 114.505C129.406 117.184 130.886 120.29 131.649 123.605C132.055 125.296 132.377 127.007 132.769 128.703C132.841 129.072 133.001 129.418 133.236 129.712C136.193 132.611 138.387 136.197 139.621 140.15C141.887 140.601 144.129 140.998 146.344 141.503C147.254 141.742 148.21 141.742 149.12 141.503C154.473 140.121 160.112 140.316 165.356 142.066C168.205 142.943 170.911 144.234 173.385 145.897C173.645 146.087 173.944 146.218 174.26 146.282C174.576 146.345 174.901 146.339 175.215 146.264C179.42 145.404 183.676 144.812 187.957 144.493L196.982 143.913C196.758 143.611 196.553 143.314 196.325 143.033C192.979 139.063 190.964 134.141 190.565 128.964C190.241 125.283 190.759 121.575 192.082 118.124C193.404 114.673 195.495 111.568 198.196 109.046C198.75 108.505 199.335 107.996 199.947 107.522C200.375 107.191 200.662 106.71 200.748 106.175C201.772 101.036 203.79 96.1457 206.688 91.7797C210.772 85.7345 216.621 81.0952 223.437 78.4936C224.008 78.2799 224.5 77.8954 224.846 77.3924C226.408 75.2965 228.572 73.7263 231.049 72.8911C233.557 71.8366 236.279 71.3907 238.993 71.5897C241.706 71.7888 244.334 72.6271 246.661 74.0363C248.772 75.2337 250.432 77.0899 251.387 79.3206C251.545 79.6587 251.808 79.937 252.136 80.1141C256.133 82.2056 259.594 85.1892 262.252 88.8335C264.91 92.4779 266.693 96.6853 267.463 101.13C268.391 105.533 268.618 110.055 268.138 114.529C268.082 115.138 268.247 115.747 268.602 116.246C271.917 121.449 273.382 127.617 272.762 133.754C272.496 137.11 271.452 140.358 269.713 143.241C267.975 146.124 265.59 148.563 262.747 150.365C261.251 151.327 259.695 152.191 258.088 152.953C257.764 153.053 257.487 153.267 257.308 153.556C257.13 153.845 257.062 154.188 257.117 154.523C257.552 154.732 258.03 154.969 258.511 155.193C265.049 158.24 271.059 162.311 276.313 167.252C276.726 167.658 277.261 167.915 277.835 167.983C285.556 168.983 292.607 172.884 297.558 178.893C302.508 184.902 304.986 192.57 304.489 200.34C304.347 201.703 304.633 203.077 305.31 204.269C307.461 208.101 308.668 212.391 308.829 216.783C308.852 217.243 308.829 217.704 308.829 218.146C307.087 218.459 305.303 218.465 303.559 218.163C303.548 215.524 303.096 212.906 302.222 210.416C302.012 210.78 301.836 211.019 301.713 211.281C300.651 213.522 299.356 215.644 297.848 217.612C297.714 217.845 297.522 218.039 297.289 218.175C297.057 218.311 296.794 218.384 296.525 218.387C292.966 218.359 289.396 218.372 285.833 218.366C285.595 218.348 285.359 218.316 285.125 218.271C285.125 217.8 285.125 217.354 285.125 216.906C285.247 213.715 284.47 210.553 282.881 207.782C282.82 207.684 282.77 207.573 282.707 207.481C281.692 205.934 281.702 205.99 279.929 206.361C278.532 206.654 277.109 206.828 275.689 206.989C270.137 207.544 264.551 207.684 258.978 207.408C255.308 207.27 251.65 206.918 247.982 206.587C245.095 206.326 242.213 206.002 239.338 205.616C236.12 205.197 232.902 204.743 229.707 204.15C224.655 203.223 219.606 202.266 214.591 201.156C203.657 198.86 192.974 195.498 182.695 191.119C182.521 191.044 182.339 190.99 182.096 190.91C174.465 201.294 164.47 206.918 151.249 206.097C150.643 210.216 151.202 214.422 152.861 218.24C152.54 218.312 152.214 218.362 151.886 218.391C150.684 218.405 149.482 218.361 148.283 218.412C147.604 218.439 147.326 218.142 147.142 217.539C146.447 215.4 146.062 213.173 145.998 210.925C145.971 208.997 146.057 207.069 146.095 205.038C145.712 204.893 145.257 204.703 144.79 204.546C141.387 203.457 138.262 201.638 135.633 199.217C135.1 198.771 134.442 198.501 133.749 198.447C128.859 197.728 124.261 195.68 120.454 192.528C119.257 191.432 118.138 190.254 117.105 189.003C116.774 188.579 116.342 188.245 115.848 188.031C112.333 186.677 109.123 184.633 106.408 182.021C104.221 179.975 102.526 177.461 101.451 174.666C101.25 174.088 100.839 173.607 100.299 173.32C93.7999 169.765 88.9345 163.826 86.7284 156.755C85.6374 153.231 85.3126 149.514 85.7758 145.853C85.8433 145.283 85.7172 144.706 85.4178 144.216C82.4374 139 81.1396 132.992 81.7016 127.011C82.1432 123.579 83.3696 120.295 85.2859 117.414C85.468 117.119 85.6627 116.828 85.914 116.432M212.741 155.168C212.679 155.28 212.595 155.378 212.494 155.457C212.394 155.536 212.278 155.594 212.155 155.627C212.032 155.661 211.903 155.669 211.776 155.652C211.65 155.635 211.528 155.593 211.418 155.528C210.598 155.189 209.805 154.787 209.048 154.326C207.685 153.441 206.326 152.53 205.07 151.517C202.914 149.839 200.232 148.982 197.503 149.099C193.044 149.119 188.606 149.417 184.178 149.871C182.503 150.043 180.84 150.33 179.084 150.577C187.793 161.436 189.732 173.242 184.737 186.139C184.781 186.189 184.818 186.271 184.881 186.3C185.159 186.434 185.444 186.555 185.718 186.677C194.97 190.511 204.548 193.506 214.336 195.625C224.165 197.906 234.112 199.646 244.132 200.836C249.404 201.451 254.686 201.914 259.983 202.105C265.673 202.372 271.376 202.151 277.029 201.445C278.922 201.258 280.745 200.629 282.351 199.609C283.205 199.068 283.925 198.342 284.458 197.484C284.991 196.626 285.323 195.658 285.429 194.653C285.592 193.11 285.45 191.549 285.01 190.06C283.645 185.483 281.412 181.211 278.432 177.477C272.352 169.632 264.411 163.428 255.327 159.428C254.72 159.084 254.049 158.871 253.355 158.803C252.661 158.735 251.96 158.813 251.299 159.033C250.975 159.151 250.63 159.2 250.286 159.178C249.943 159.155 249.607 159.062 249.301 158.903C249.839 158.511 250.212 158.216 250.61 157.957C251.692 157.328 252.523 156.344 252.963 155.172C253.415 153.828 252.963 153.181 251.558 153.078C251.14 153.047 250.702 153.093 250.281 153.041C249.324 152.921 248.368 152.792 247.423 152.612C247.17 152.589 246.931 152.484 246.743 152.314C246.554 152.144 246.425 151.917 246.377 151.667C246.795 151.529 247.214 151.362 247.633 151.249C251.595 150.333 255.395 148.82 258.903 146.762C262.137 144.932 264.714 142.131 266.27 138.756C267.826 135.382 268.281 131.603 267.572 127.955C267.069 123.573 265.194 119.461 262.215 116.208C261.972 115.899 261.752 115.573 261.557 115.232L262.814 114.738C263.566 108.995 262.972 103.156 261.08 97.6816C259.907 94.3859 258.021 91.3895 255.558 88.9053C253.095 86.4211 250.114 84.5104 246.829 83.3089C246.251 83.0996 245.539 83.0054 245.225 82.1993L246.653 81.7513C246.676 81.3943 246.617 81.0368 246.482 80.7054C246.348 80.3741 246.14 80.0775 245.874 79.8377C245.174 79.1205 244.381 78.5002 243.517 77.9933C241.556 76.9561 239.354 76.4596 237.138 76.5545C234.921 76.6494 232.77 77.3324 230.905 78.5334C230.435 78.8712 230 79.2564 229.609 79.6828C230.507 80.4009 231.749 80.0366 232.362 81.0018C231.878 81.414 231.275 81.6624 230.641 81.7115C227.908 82.2573 225.256 83.1486 222.748 84.3641C218.799 86.2897 215.313 89.0447 212.526 92.4411C209.74 95.8375 207.719 99.7952 206.602 104.044C206.416 104.716 206.295 105.405 206.24 106.1C206.16 106.937 206.361 107.17 207.19 107.396C207.525 107.488 207.875 107.536 208.2 107.658C208.524 107.779 208.828 107.965 209.29 108.196C209.147 108.316 208.994 108.425 208.834 108.522C208.484 108.684 208.125 108.827 207.76 108.951C204.15 110.12 201.043 112.475 198.942 115.634C196.321 119.452 195.109 124.062 195.513 128.676C195.916 133.289 197.911 137.618 201.155 140.923C203.56 143.291 206.368 145.212 209.447 146.595C212.724 148.168 216.142 149.43 219.656 150.363C220.075 150.474 220.468 150.648 221.033 150.851C220.73 151.057 220.382 151.188 220.018 151.234C219.654 151.279 219.285 151.239 218.94 151.115C216.591 150.654 214.25 150.156 211.907 149.668C211.598 149.548 211.26 149.527 210.938 149.606C210.616 149.686 210.327 149.862 210.109 150.112C209.88 150.383 209.753 150.724 209.748 151.079C209.743 151.433 209.862 151.778 210.084 152.055C210.651 152.875 211.34 153.617 211.983 154.381C212.217 154.657 212.489 154.902 212.745 155.16M89.7034 120.322C87.6935 123.123 86.6061 126.481 86.5923 129.929C86.6787 134.959 88.2331 139.855 91.0642 144.013C92.8696 146.797 95.4545 148.988 98.4966 150.313C101.253 151.521 104.238 152.117 107.247 152.06C110.256 152.003 113.217 151.295 115.926 149.984C120.212 148.156 123.679 144.819 125.67 140.605C127.362 137.259 127.909 133.45 127.225 129.764C126.903 128.133 126.511 126.517 126.141 124.896C125.596 122.53 124.566 120.302 123.117 118.353C121.667 116.404 119.83 114.777 117.72 113.574C117.301 113.319 116.864 113.118 116.299 112.818C116.518 114.261 116.736 115.511 116.895 116.767C117.057 118.912 116.406 121.039 115.072 122.725C114.936 122.935 114.622 123.01 114.266 123.224C114.266 122.428 114.295 121.848 114.266 121.274C114.235 120.351 114.146 119.43 114 118.517C113.497 115.936 112.936 113.367 112.377 110.796C112.256 110.271 112.314 109.722 112.543 109.234C113.308 107.581 113.813 105.82 114.04 104.013C114.13 103.127 114.192 102.239 114.322 101.36C114.906 97.4199 115.492 93.4776 116.108 89.5437C116.839 84.8812 117.607 80.225 118.348 75.5647C118.558 74.2289 118.727 72.8828 118.939 71.5449C119.001 71.2572 118.954 70.9563 118.805 70.7019C118.657 70.4475 118.418 70.2582 118.137 70.1715C117.782 70.0195 117.407 69.9235 117.023 69.8868C116.225 69.7982 115.419 69.9519 114.709 70.328C114 70.704 113.42 71.2849 113.045 71.9951C112.376 73.0802 111.834 74.2385 111.429 75.4474C110.552 78.2152 109.559 80.9369 108.45 83.6125C107.909 85.1053 107.094 86.4841 106.048 87.6783C105.653 88.097 105.357 88.61 105.001 89.0685C104.843 89.243 104.673 89.4067 104.493 89.5584C104.386 89.3155 104.244 89.1396 104.283 89.0538C104.817 87.7809 105.374 86.5163 105.971 85.145C105.931 85.0613 105.83 84.854 105.726 84.6488C103.05 79.4986 100.376 74.3483 97.7031 69.198C95.8188 65.5551 93.9478 61.9053 92.0901 58.2484C91.8299 57.6394 91.3738 57.1346 90.7942 56.8143C90.3041 56.6296 89.7735 56.5802 89.2578 56.6711C88.7421 56.7621 88.2603 56.9902 87.8631 57.3314C87.0403 58.0077 87.5679 58.6504 87.838 59.2973C90.5415 65.7959 93.2486 72.2938 95.9591 78.7909C96.1202 79.1395 96.2323 79.5087 96.292 79.888C96.3198 80.1223 96.2602 80.3587 96.1246 80.5518C95.989 80.7449 95.787 80.8813 95.5571 80.9348C95.3362 81.0182 95.0914 81.0119 94.8751 80.9172C94.6587 80.8225 94.488 80.647 94.3994 80.4281C94.3287 80.2919 94.2651 80.1522 94.2088 80.0094C91.1731 72.6525 88.1199 65.2955 85.0493 57.9386C84.7592 57.2239 84.3492 56.564 83.8371 55.9873C83.49 55.6206 83.0395 55.3682 82.5456 55.2635C82.0516 55.1588 81.5375 55.2068 81.0714 55.4011C80.6149 55.5158 80.2094 55.7789 79.9187 56.1492C79.628 56.5195 79.4686 56.9758 79.4656 57.4466C79.3359 59.0088 79.8288 60.559 80.837 61.7594C81.7801 62.7885 82.5323 63.9774 83.0583 65.2704C83.6975 66.9285 84.283 68.6076 84.8148 70.3076C86.1768 74.3827 88.0122 78.284 90.2833 81.9313C90.4919 82.2541 90.658 82.6024 90.7774 82.9677C90.8521 83.1918 90.8468 83.4348 90.7624 83.6554C90.678 83.8761 90.5198 84.0607 90.3147 84.1778C90.0962 84.3071 89.8397 84.3568 89.5886 84.3187C89.3376 84.2805 89.1074 84.1568 88.9371 83.9684C88.6582 83.6432 88.41 83.2928 88.196 82.9216C85.6353 78.8596 83.6478 74.4633 82.2899 69.8575C81.7843 68.1945 81.1502 66.5733 80.3931 65.0087C80.0242 64.2868 79.5145 63.6461 78.8941 63.1244C78.422 62.7453 77.8435 62.5227 77.2391 62.4874C76.6347 62.4522 76.0343 62.606 75.5213 62.9276C75.0599 63.2259 74.7148 63.6734 74.5437 64.1954C74.3726 64.7175 74.3859 65.2824 74.5812 65.7959C74.6964 66.2837 74.8639 66.7589 75 67.2405C75.0446 67.4676 75.1675 67.6719 75.3474 67.8177C75.5272 67.9635 75.7525 68.0415 75.984 68.0381C76.7023 68.1078 77.3965 68.3347 78.0174 68.7026C78.6383 69.0706 79.1706 69.5707 79.5766 70.1673C80.6042 71.5834 81.2444 73.2433 81.4336 74.9826C81.9829 79.0596 83.3555 82.9822 85.468 86.5122C85.6388 86.7681 85.7734 87.0464 85.8679 87.3391C85.953 87.5811 85.9463 87.8459 85.849 88.0833C85.7517 88.3206 85.5707 88.514 85.3403 88.6267C85.1249 88.766 84.8646 88.8184 84.612 88.7734C84.3595 88.7283 84.1334 88.5891 83.9795 88.3838C83.7553 88.1177 83.5536 87.8334 83.3765 87.5338C81.3583 84.132 79.9862 80.3864 79.3296 76.4859C79.1446 75.2268 78.8432 73.9877 78.4293 72.7844C78.1226 71.9938 77.6179 71.2952 76.9638 70.7556C76.6825 70.4865 76.3304 70.303 75.9486 70.2268C75.5669 70.1507 75.1713 70.1849 74.8083 70.3255C74.4453 70.4661 74.1299 70.7074 73.8991 71.0209C73.6683 71.3344 73.5316 71.7072 73.5051 72.0956C73.408 72.5069 73.3665 72.9294 73.3816 73.3517C73.4746 74.8165 73.6522 76.2747 73.9134 77.719C75.1497 83.4696 76.926 89.0908 79.2186 94.5077C81.2802 99.6032 83.7263 104.535 86.5358 109.259C87.6673 111.202 89.0382 112.995 90.6162 114.596C91.2341 115.269 92.0044 115.785 92.8626 116.1C93.7208 116.415 94.6419 116.519 95.5488 116.405C95.971 116.345 96.3989 116.333 96.8238 116.371C97.5063 116.438 97.7952 116.872 97.5209 117.495C97.3275 117.999 97.0209 118.452 96.6249 118.819C96.3805 119.003 96.2068 119.266 96.1329 119.563C96.059 119.861 96.0893 120.174 96.2187 120.452C96.6626 122.127 97.1357 123.816 97.41 125.529C97.542 126.412 97.8881 127.249 98.4179 127.968C98.9477 128.687 99.6453 129.266 100.45 129.653C100.83 129.844 101.195 130.064 101.543 130.31C102.11 130.742 102.043 131.236 101.396 131.567C101.222 131.647 101.036 131.703 100.846 131.73C97.8664 132.23 95.0902 131.542 93.8613 128.42C93.151 126.749 92.6014 125.014 92.2199 123.238C92.1908 122.593 91.9599 121.973 91.5599 121.466C91.1599 120.959 90.6109 120.59 89.9902 120.412L89.7034 120.326M156.404 145.923C160.992 149.332 164.448 154.043 166.322 159.444C168.195 164.844 168.4 170.684 166.909 176.202C164.15 188.255 156.471 195.899 144.089 198.705C144.466 198.899 144.694 199.035 144.937 199.138C149.239 200.964 153.979 201.503 158.581 200.689C164.002 199.785 169.028 197.28 173.014 193.498C176.823 190.156 179.628 185.821 181.115 180.977C182.602 176.132 182.712 170.97 181.434 166.067C180.156 161.164 177.54 156.712 173.877 153.21C170.215 149.709 165.651 147.294 160.696 146.237C159.288 145.902 157.835 145.797 156.393 145.925M132.396 137.236C131.574 141.559 129.568 145.57 126.602 148.821C123.635 152.072 119.825 154.436 115.595 155.649C111.477 157.133 107.044 157.52 102.732 156.773C98.4187 156.026 94.3743 154.171 90.9951 151.389C91.0328 151.82 91.0412 152.088 91.0831 152.348C91.7668 156.861 93.8665 161.039 97.0792 164.281C99.4362 166.893 102.365 168.924 105.637 170.216C108.909 171.508 112.435 172.027 115.941 171.73C118.793 171.555 121.572 170.759 124.083 169.396C126.595 168.034 128.778 166.139 130.481 163.844C132.736 160.944 134.3 157.567 135.053 153.971C135.806 150.376 135.728 146.655 134.825 143.094C134.373 141.01 133.55 139.025 132.396 137.232M146.708 146.982C147.087 147.539 147.303 147.859 147.521 148.175C149.497 150.991 150.876 154.181 151.571 157.55C152.266 160.92 152.262 164.395 151.561 167.763C150.412 173.439 147.501 178.608 143.242 182.533C138.983 186.457 133.594 188.937 127.843 189.618C127.189 189.689 126.543 189.798 125.739 189.911C126.032 190.121 126.157 190.217 126.279 190.292C130.682 192.875 135.776 194.033 140.863 193.609C146.023 193.345 150.913 191.221 154.628 187.631C157.834 184.668 160.198 180.909 161.48 176.736C162.763 172.563 162.918 168.125 161.931 163.873C161.014 158.705 158.233 154.053 154.115 150.799C151.909 149.073 149.397 147.78 146.71 146.986M108.378 176.537C108.78 177.019 109.03 177.35 109.312 177.649C110.869 179.273 112.67 180.645 114.649 181.715C119.233 184.437 124.705 185.243 129.88 183.959C135.152 182.695 139.771 179.527 142.85 175.064C145.928 170.601 147.249 165.158 146.557 159.78C145.991 155.724 144.185 151.942 141.388 148.95C141.208 148.787 141.014 148.64 140.808 148.51C140.651 150.145 140.578 151.697 140.333 153.221C140.113 154.753 139.773 156.265 139.316 157.743C136.336 166.831 130.583 173.211 121.204 175.928C118.089 176.884 114.813 177.198 111.573 176.851C110.589 176.734 109.603 176.657 108.385 176.539M290.516 217.587C295.534 213.231 298.644 207.08 299.176 200.457C299.708 193.833 297.621 187.265 293.363 182.163C290.645 178.833 287.103 176.27 283.09 174.729C284.114 176.32 285.075 177.727 285.946 179.188C288.509 183.082 290.181 187.493 290.845 192.108C291.277 195.173 290.528 198.288 288.751 200.823C288.079 201.757 287.242 202.576 286.429 203.501C289.322 207.609 290.752 212.569 290.491 217.587"></path>
<path fill="white" d="M212.74 155.168C212.487 154.91 212.215 154.668 211.98 154.391C211.331 153.627 210.649 152.886 210.081 152.063C209.859 151.787 209.741 151.442 209.745 151.087C209.75 150.733 209.877 150.391 210.106 150.12C210.324 149.871 210.613 149.695 210.935 149.615C211.256 149.536 211.594 149.557 211.903 149.676C214.247 150.164 216.588 150.66 218.937 151.121C219.282 151.245 219.652 151.286 220.016 151.24C220.379 151.195 220.727 151.063 221.031 150.857C220.468 150.648 220.068 150.48 219.653 150.369C216.14 149.436 212.722 148.174 209.445 146.601C206.362 145.22 203.551 143.3 201.144 140.931C197.9 137.627 195.905 133.297 195.501 128.684C195.098 124.071 196.31 119.461 198.931 115.643C201.03 112.485 204.136 110.131 207.743 108.962C208.107 108.84 208.466 108.701 208.817 108.543C208.977 108.446 209.129 108.337 209.273 108.217C208.81 107.984 208.509 107.798 208.182 107.679C207.856 107.559 207.508 107.507 207.173 107.417C206.336 107.191 206.143 106.961 206.223 106.121C206.277 105.426 206.399 104.739 206.585 104.067C207.702 99.8182 209.722 95.8605 212.509 92.4641C215.295 89.0676 218.782 86.3126 222.731 84.3872C225.238 83.1714 227.891 82.28 230.624 81.7346C231.258 81.6859 231.86 81.4374 232.345 81.0249C231.733 80.0618 230.49 80.4261 229.592 79.708C229.983 79.2808 230.417 78.8949 230.887 78.5565C232.753 77.3559 234.904 76.6731 237.12 76.5782C239.337 76.4833 241.538 76.9797 243.499 78.0163C244.364 78.5242 245.157 79.1452 245.857 79.8629C246.122 80.1027 246.33 80.3993 246.465 80.7306C246.6 81.0619 246.658 81.4194 246.636 81.7765L245.208 82.2245C245.522 83.0305 246.234 83.1185 246.811 83.3341C250.097 84.5359 253.077 86.4468 255.54 88.9309C258.003 91.415 259.889 94.4113 261.063 97.7067C262.955 103.181 263.548 109.02 262.796 114.763L261.54 115.257C261.735 115.598 261.955 115.924 262.197 116.233C265.176 119.487 267.051 123.598 267.555 127.98C268.263 131.628 267.808 135.406 266.252 138.78C264.696 142.155 262.119 144.955 258.885 146.785C255.378 148.844 251.578 150.357 247.615 151.272C247.184 151.381 246.778 151.548 246.359 151.69C246.408 151.94 246.536 152.167 246.725 152.337C246.914 152.507 247.153 152.612 247.406 152.635C248.352 152.815 249.309 152.947 250.264 153.064C250.683 153.116 251.116 153.064 251.541 153.102C252.952 153.206 253.398 153.851 252.946 155.195C252.505 156.366 251.674 157.35 250.593 157.98C250.197 158.239 249.822 158.534 249.284 158.926C249.59 159.085 249.925 159.178 250.269 159.2C250.613 159.223 250.958 159.173 251.281 159.056C251.943 158.836 252.643 158.758 253.337 158.826C254.031 158.895 254.703 159.108 255.309 159.451C264.393 163.452 272.335 169.655 278.415 177.501C281.394 181.234 283.628 185.507 284.993 190.085C285.432 191.574 285.574 193.135 285.411 194.679C285.305 195.683 284.973 196.651 284.44 197.509C283.907 198.367 283.187 199.094 282.334 199.634C280.728 200.655 278.905 201.284 277.012 201.47C271.359 202.177 265.656 202.398 259.966 202.13C254.667 201.939 249.385 201.477 244.115 200.861C234.095 199.672 224.148 197.932 214.319 195.65C204.53 193.531 194.953 190.536 185.701 186.702C185.416 186.58 185.132 186.459 184.864 186.325C184.803 186.296 184.763 186.214 184.719 186.164C189.71 173.267 187.774 161.459 179.066 150.602C180.825 150.355 182.487 150.068 184.16 149.896C188.59 149.442 193.029 149.143 197.486 149.124C200.215 149.006 202.897 149.863 205.052 151.54C206.321 152.553 207.676 153.464 209.03 154.349C209.788 154.81 210.58 155.212 211.4 155.551C211.51 155.616 211.632 155.658 211.759 155.674C211.885 155.691 212.014 155.682 212.137 155.648C212.26 155.615 212.375 155.557 212.476 155.478C212.576 155.399 212.659 155.301 212.721 155.189M236.971 107.752C236.971 107.057 237.024 106.355 236.971 105.658C236.884 104.226 236.508 102.826 235.866 101.542C235.354 100.551 234.601 99.7047 233.676 99.0806C232.751 98.4565 231.684 98.0749 230.574 97.9706C229.463 97.8664 228.344 98.043 227.319 98.4842C226.294 98.9253 225.397 99.6169 224.709 100.495C224.142 101.275 223.667 102.118 223.294 103.008C222.441 105.089 221.994 107.314 221.977 109.563C221.901 111.623 222.359 113.667 223.307 115.498C223.777 116.53 224.577 117.375 225.58 117.902C227.137 118.608 228.846 118.912 230.55 118.785C231.343 118.697 232.105 118.429 232.779 118.004C233.453 117.578 234.022 117.005 234.442 116.327C236.297 113.866 237.202 110.818 236.99 107.744M257.88 110.317C257.836 109.479 257.832 108.617 257.736 107.775C257.652 107.085 257.512 106.403 257.317 105.736C257.048 104.369 256.311 103.139 255.233 102.256C254.155 101.374 252.804 100.894 251.411 100.899C250.162 100.813 248.916 101.103 247.834 101.732C246.752 102.36 245.883 103.299 245.34 104.427C243.589 107.42 242.797 110.878 243.072 114.334C243.194 115.962 243.702 117.536 244.555 118.928C244.88 119.479 245.323 119.952 245.852 120.314C246.38 120.675 246.981 120.917 247.613 121.021C248.373 121.153 249.131 121.327 249.897 121.4C250.609 121.498 251.332 121.437 252.017 121.222C252.702 121.007 253.331 120.643 253.859 120.157C254.769 119.316 255.533 118.33 256.12 117.238C257.204 115.087 257.801 112.723 257.868 110.314M253.743 128.738C251.051 129.895 248.182 130.587 245.258 130.784C242.321 130.931 239.377 130.8 236.465 130.392C231.279 129.756 226.221 128.329 221.468 126.159C221.192 126.027 220.897 125.939 220.593 125.897C220.38 125.864 220.162 125.904 219.974 126.011C219.787 126.118 219.641 126.285 219.561 126.486C219.447 126.691 219.406 126.929 219.444 127.161C219.482 127.393 219.597 127.606 219.77 127.765C219.964 127.955 220.192 128.105 220.442 128.209C221.542 128.682 222.628 129.197 223.759 129.576C224.752 129.903 225.657 130.456 226.401 131.192C227.448 132.22 228.467 133.298 229.602 134.228C231.499 135.842 233.786 136.93 236.235 137.382C238.685 137.834 241.21 137.635 243.558 136.805C245.19 136.188 246.693 135.272 247.99 134.104C248.891 133.378 249.844 132.721 250.842 132.136C251.914 131.525 253.067 131.062 254.191 130.539C254.26 130.524 254.332 130.524 254.401 130.539L254.91 131.257C255.269 130.98 255.528 130.593 255.647 130.154C255.766 129.716 255.739 129.251 255.569 128.83C255.419 128.49 255.159 128.21 254.83 128.036C254.502 127.862 254.124 127.804 253.758 127.871L253.743 128.738ZM220.694 123.812C219.816 123.838 218.968 124.137 218.267 124.666C217.565 125.22 217.061 125.986 216.831 126.85C216.798 126.931 216.784 127.02 216.791 127.108C216.797 127.196 216.824 127.281 216.869 127.357C216.914 127.433 216.976 127.497 217.05 127.545C217.124 127.593 217.208 127.623 217.296 127.633C217.414 127.633 217.53 127.602 217.633 127.545C217.737 127.487 217.824 127.404 217.886 127.304C218.081 126.736 218.43 126.233 218.894 125.853C219.359 125.472 219.92 125.229 220.516 125.15C220.782 125.113 221.04 125.03 221.278 124.905C221.377 124.829 221.46 124.735 221.522 124.627C221.584 124.519 221.624 124.4 221.64 124.277C221.64 124.139 221.372 123.954 221.19 123.858C221.029 123.813 220.86 123.798 220.694 123.816"></path>
<path fill="white" d="M89.7018 120.322L89.9886 120.407C90.6096 120.586 91.1591 120.954 91.5595 121.461C91.9599 121.968 92.1911 122.588 92.2204 123.234C92.6011 125.009 93.1507 126.745 93.8618 128.415C95.0907 131.537 97.8689 132.226 100.846 131.725C101.037 131.698 101.222 131.643 101.397 131.562C102.044 131.24 102.109 130.746 101.543 130.306C101.196 130.061 100.83 129.842 100.45 129.651C99.6457 129.263 98.948 128.685 98.4181 127.966C97.8883 127.247 97.5423 126.41 97.4104 125.526C97.1362 123.814 96.663 122.128 96.2192 120.449C96.0897 120.172 96.0594 119.858 96.1333 119.561C96.2073 119.264 96.3809 119.001 96.6253 118.816C97.0212 118.449 97.3277 117.997 97.5214 117.493C97.7957 116.865 97.5067 116.446 96.8242 116.369C96.3994 116.33 95.9715 116.342 95.5492 116.402C94.642 116.517 93.7205 116.413 92.8619 116.098C92.0033 115.783 91.2327 115.267 90.6146 114.593C89.0368 112.992 87.6659 111.199 86.5341 109.257C83.7263 104.536 81.2809 99.6089 79.2191 94.5178C76.9265 89.101 75.1502 83.4798 73.9139 77.7292C73.6531 76.2848 73.4755 74.8266 73.3821 73.3619C73.3666 72.9395 73.4081 72.517 73.5056 72.1057C73.5321 71.7173 73.6687 71.3445 73.8995 71.031C74.1303 70.7175 74.4457 70.4763 74.8087 70.3357C75.1717 70.1951 75.5673 70.1608 75.9491 70.237C76.3309 70.3132 76.683 70.4966 76.9642 70.7658C77.6186 71.3052 78.1233 72.0038 78.4298 72.7945C78.844 73.9978 79.1454 75.237 79.33 76.496C79.9871 80.3965 81.3591 84.142 83.377 87.544C83.5546 87.8432 83.7562 88.1275 83.9799 88.394C84.1336 88.5996 84.3595 88.7392 84.6121 88.7847C84.8647 88.8301 85.1251 88.7781 85.3408 88.639C85.5712 88.5263 85.7522 88.3329 85.8495 88.0955C85.9467 87.8582 85.9534 87.5934 85.8684 87.3514C85.773 87.0586 85.6378 86.7803 85.4664 86.5244C83.3551 82.9956 81.9833 79.0744 81.4341 74.9991C81.2448 73.2597 80.6047 71.5999 79.5771 70.1838C79.1744 69.5855 78.6453 69.083 78.027 68.7118C77.4087 68.3406 76.7164 68.1098 75.9991 68.0358C75.7675 68.0395 75.542 67.9617 75.3621 67.8158C75.1822 67.67 75.0593 67.4654 75.0151 67.2381C74.8685 66.7587 74.7031 66.2813 74.5964 65.7935C74.3996 65.2812 74.3846 64.717 74.5537 64.1949C74.7229 63.6729 75.0661 63.2247 75.5259 62.9253C76.0385 62.6031 76.6387 62.4485 77.2431 62.483C77.8475 62.5175 78.4262 62.7394 78.8987 63.1179C79.5188 63.64 80.0284 64.2806 80.3978 65.0021C81.1545 66.5669 81.7887 68.188 82.2946 69.8509C83.6526 74.4597 85.6408 78.8588 88.2027 82.9234C88.4162 83.2949 88.6644 83.6454 88.9439 83.9702C89.114 84.1581 89.3438 84.2815 89.5944 84.3197C89.845 84.3578 90.101 84.3083 90.3194 84.1796C90.5245 84.0625 90.6827 83.8779 90.7671 83.6573C90.8514 83.4366 90.8567 83.1936 90.7821 82.9695C90.6626 82.6042 90.4966 82.2559 90.288 81.9331C88.0156 78.2854 86.1795 74.3834 84.8174 70.3073C84.2856 68.6115 83.7015 66.9282 83.0608 65.2701C82.5334 63.9758 81.779 62.7861 80.8332 61.757C79.8247 60.5568 79.3317 59.0065 79.4619 57.4442C79.4649 56.9735 79.6243 56.5171 79.915 56.1468C80.2057 55.7765 80.6112 55.5134 81.0677 55.3987C81.5359 55.2017 82.0531 55.1524 82.55 55.2576C83.0469 55.3627 83.4998 55.6173 83.848 55.987C84.3599 56.564 84.7698 57.2238 85.0602 57.9383C88.1309 65.2882 91.1861 72.6466 94.2261 80.0133C94.2815 80.1564 94.3451 80.2962 94.4166 80.432C94.5048 80.6513 94.6755 80.8271 94.892 80.9219C95.1084 81.0166 95.3535 81.0226 95.5743 80.9387C95.8042 80.8852 96.0062 80.7488 96.1418 80.5557C96.2774 80.3626 96.337 80.1262 96.3092 79.8919C96.25 79.5125 96.1379 79.1432 95.9763 78.7948C93.2728 72.2949 90.5657 65.797 87.8552 59.3012C87.5872 58.6522 87.0596 58.0116 87.8803 57.3353C88.2774 56.9939 88.7592 56.7657 89.2749 56.6747C89.7907 56.5837 90.3214 56.6333 90.8114 56.8182C91.3911 57.1384 91.8473 57.6432 92.1073 58.2523C93.9706 61.9064 95.8416 65.5562 97.7203 69.2019C100.386 74.3564 103.06 79.5067 105.743 84.6527C105.85 84.8621 105.952 85.0715 105.988 85.1468C105.389 86.5202 104.832 87.7827 104.301 89.0577C104.261 89.1498 104.403 89.3173 104.51 89.5623C104.69 89.4106 104.86 89.2469 105.019 89.0724C105.375 88.6139 105.668 88.0988 106.065 87.6801C107.112 86.4859 107.926 85.1071 108.467 83.6143C109.572 80.9317 110.565 78.21 111.446 75.4492C111.848 74.2387 112.387 73.0782 113.054 71.9906C113.429 71.2804 114.008 70.6995 114.718 70.3235C115.427 69.9475 116.234 69.7937 117.032 69.8823C117.416 69.919 117.791 70.015 118.146 70.1671C118.427 70.2537 118.666 70.443 118.814 70.6974C118.963 70.9518 119.01 71.2527 118.947 71.5405C118.738 72.8783 118.571 74.2224 118.357 75.5602C117.616 80.2206 116.848 84.8768 116.117 89.5392C115.499 93.4752 114.913 97.4154 114.329 101.356C114.199 102.235 114.136 103.123 114.046 104.008C113.821 105.816 113.316 107.577 112.549 109.23C112.321 109.717 112.263 110.267 112.384 110.791C112.943 113.36 113.504 115.931 114.006 118.511C114.153 119.424 114.242 120.346 114.272 121.27C114.31 121.844 114.272 122.421 114.272 123.219C114.63 123.01 114.942 122.924 115.078 122.721C116.414 121.035 117.065 118.907 116.902 116.762C116.745 115.506 116.525 114.25 116.305 112.814C116.873 113.113 117.316 113.316 117.729 113.57C119.839 114.773 121.676 116.4 123.125 118.349C124.575 120.297 125.604 122.525 126.149 124.892C126.518 126.512 126.912 128.129 127.234 129.76C127.917 133.446 127.37 137.255 125.678 140.6C123.688 144.814 120.221 148.151 115.935 149.98C113.226 151.291 110.265 151.999 107.256 152.056C104.247 152.112 101.262 151.516 98.5054 150.308C95.4634 148.983 92.8785 146.793 91.0731 144.009C88.2443 139.854 86.69 134.963 86.6011 129.938C86.6151 126.49 87.7025 123.132 89.7122 120.33"></path>
<path fill="white" d="M156.402 145.923C157.843 145.795 159.296 145.9 160.704 146.235C165.66 147.292 170.224 149.707 173.886 153.209C177.548 156.71 180.165 161.162 181.443 166.065C182.721 170.968 182.61 176.131 181.123 180.975C179.637 185.819 176.832 190.154 173.023 193.496C169.036 197.278 164.01 199.782 158.59 200.687C153.987 201.501 149.248 200.962 144.946 199.136C144.703 199.033 144.475 198.897 144.098 198.703C156.471 195.897 164.15 188.251 166.918 176.198C168.409 170.68 168.203 164.84 166.329 159.44C164.455 154.039 160.999 149.328 156.41 145.919"></path>
<path fill="white" d="M132.396 137.24C133.55 139.033 134.373 141.019 134.825 143.102C135.727 146.663 135.805 150.384 135.052 153.98C134.299 157.575 132.736 160.952 130.48 163.852C128.779 166.148 126.597 168.045 124.085 169.409C121.574 170.772 118.795 171.571 115.942 171.747C112.437 172.043 108.911 171.525 105.639 170.233C102.367 168.94 99.4381 166.909 97.0811 164.298C93.8686 161.056 91.769 156.877 91.085 152.364C91.0431 152.103 91.0348 151.837 90.9971 151.403C94.3759 154.185 98.42 156.041 102.732 156.788C107.045 157.534 111.477 157.147 115.595 155.664C119.825 154.45 123.635 152.086 126.602 148.835C129.568 145.584 131.574 141.574 132.396 137.251"></path>
<path fill="white" d="M146.706 146.986C149.393 147.779 151.906 149.073 154.113 150.798C158.23 154.053 161.011 158.705 161.929 163.873C162.916 168.125 162.761 172.563 161.478 176.736C160.195 180.909 157.831 184.668 154.626 187.631C150.911 191.221 146.022 193.345 140.863 193.609C135.775 194.034 130.681 192.876 126.276 190.294C126.145 190.219 126.027 190.121 125.736 189.913C126.538 189.8 127.187 189.691 127.83 189.62C133.581 188.939 138.97 186.46 143.229 182.537C147.489 178.613 150.401 173.445 151.551 167.769C152.252 164.401 152.255 160.926 151.56 157.557C150.865 154.188 149.487 150.997 147.51 148.181C147.301 147.863 147.076 147.553 146.698 146.988"></path>
<path fill="white" d="M108.376 176.537C109.595 176.655 110.583 176.732 111.565 176.849C114.805 177.196 118.081 176.881 121.196 175.924C130.575 173.202 136.328 166.827 139.307 157.739C139.765 156.26 140.105 154.748 140.325 153.217C140.57 151.692 140.643 150.141 140.8 148.508C141.005 148.637 141.199 148.785 141.378 148.948C144.176 151.939 145.982 155.722 146.549 159.778C147.24 165.156 145.92 170.599 142.841 175.062C139.763 179.525 135.144 182.693 129.871 183.957C124.697 185.24 119.225 184.434 114.64 181.713C112.661 180.643 110.861 179.271 109.304 177.647C109.021 177.348 108.772 177.019 108.37 176.535"></path>
<path fill="white" d="M290.507 217.587C290.768 212.57 289.338 207.611 286.446 203.503C287.258 202.578 288.096 201.759 288.768 200.826C290.545 198.291 291.293 195.176 290.861 192.11C290.198 187.496 288.525 183.085 285.962 179.19C285.091 177.725 284.128 176.322 283.106 174.731C287.12 176.272 290.661 178.835 293.38 182.165C297.635 187.269 299.719 193.838 299.183 200.461C298.648 207.085 295.536 213.233 290.516 217.587"></path>
<path fill="white" d="M282.875 207.778C282.814 207.68 282.764 207.569 282.701 207.477C281.686 205.93 281.696 205.986 279.925 206.357C278.529 206.648 277.105 206.824 275.685 206.985C270.133 207.54 264.547 207.68 258.974 207.404C255.304 207.265 251.647 206.914 247.979 206.581C245.091 206.321 242.209 205.998 239.334 205.611C236.116 205.182 232.898 204.738 229.703 204.146C224.652 203.218 219.602 202.262 214.588 201.152C203.652 198.852 192.967 195.486 182.687 191.103C182.514 191.027 182.331 190.973 182.089 190.893C174.459 201.278 164.465 206.901 151.241 206.08C150.636 210.199 151.194 214.405 152.853 218.223H285.126C285.126 217.773 285.126 217.342 285.126 216.913C285.247 213.721 284.469 210.56 282.881 207.789"></path>
<path fill="#01418F" d="M331.028 225H114.314L118.305 214.486H335.019L331.028 225Z"></path>
</svg>
